<?xml version="1.0" standalone="no"?>
<!DOCTYPE svg PUBLIC "-//W3C//DTD SVG 20010904//EN"
 "http://www.w3.org/TR/2001/REC-SVG-20010904/DTD/svg10.dtd">
<svg version="1.0" xmlns="http://www.w3.org/2000/svg"
 width="40pt" height="40pt" viewBox="0 0 267.000000 267.000000"
 preserveAspectRatio="xMidYMid meet">
<g transform="translate(0.000000,267.000000) scale(0.100000,-0.100000)"
fill="#ffffff" stroke="none">
<path d="M1200 1839 c-140 -5 -282 -12 -315 -16 -52 -7 -60 -11 -63 -30 -3
-22 -1 -23 82 -23 120 0 116 7 116 -203 0 -258 -20 -601 -44 -772 0 -5 4 -9
10 -8 5 1 68 7 139 13 108 10 154 9 302 -5 95 -10 196 -15 224 -13 92 9 138
69 147 190 l5 70 -28 -4 c-24 -3 -30 -10 -40 -51 -14 -57 -57 -105 -99 -112
-17 -3 -137 -6 -267 -7 l-235 -3 7 55 c4 30 13 127 19 215 6 87 12 160 13 161
1 1 76 -3 167 -9 91 -6 186 -7 212 -3 57 9 90 33 82 61 -5 19 -12 20 -234 17
l-229 -3 5 168 c3 92 7 187 10 211 l5 42 177 0 c183 0 244 -8 270 -33 9 -10
17 -43 20 -86 5 -69 5 -71 32 -71 31 0 35 12 47 157 5 67 4 78 -12 89 -21 16
-98 16 -525 3z"/>
</g>
</svg>
